<?xml version="1.0" encoding="utf-8"?>
<!-- Generator: Adobe Illustrator 23.0.5, SVG Export Plug-In . SVG Version: 6.00 Build 0)  -->
<svg version="1.1" id="图层_1" xmlns="http://www.w3.org/2000/svg" xmlns:xlink="http://www.w3.org/1999/xlink" x="0px" y="0px"
	 viewBox="0 0 595.3 595.3" style="enable-background:new 0 0 595.3 595.3;" xml:space="preserve">
<style type="text/css">
	.st0{fill:#040000;}
	.st1{fill:#FFFFFF;}
	.st2{fill:#B8292D;}
</style>
<g>
	<g>
		<path class="st0" d="M47.4,595.3C-1,519.8-14.5,127.8,26.7,138.4c52.4,13.5,72.7,62.5,91.5,71.8c100.6-41.2,126.8-30.8,212.1-30
			C368.9,110.5,424.6,49.3,453,59.5c51,18.4,45.3,273.9,142.3,294.7c0,209.8,0,241.1,0,241.1H47.4z"/>
		<circle class="st1" cx="133.6" cy="387.6" r="60.8"/>
		<circle class="st1" cx="364.6" cy="340.7" r="61.7"/>
		<circle class="st0" cx="119.6" cy="378.6" r="34"/>
		<circle class="st0" cx="352.6" cy="334.5" r="34"/>
	</g>
	<g>
		<path class="st2" d="M187.9,88.7c0,4.9-0.9,9.5-2.6,13.8c-1.8,4.3-4.4,8.2-7.9,11.6l-52.9,53l-52.9-53c-3.4-3.4-6.1-7.3-7.9-11.6
			c-1.8-4.3-2.7-8.9-2.7-13.8c0-3.3,0.5-6.5,1.3-9.6c0.9-3,2.1-5.9,3.6-8.6c1.6-2.6,3.4-5,5.7-7.2c2.2-2.2,4.6-4.1,7.3-5.7
			c2.6-1.5,5.4-2.7,8.6-3.6c3-0.9,6.3-1.3,9.5-1.3c2.9,0,5.5,0.3,8,0.9c2.5,0.6,4.9,1.4,7.1,2.4c2.2,1.1,4.4,2.4,6.4,4
			c2.1,1.5,4.1,3.3,6,5.3c1.9-2,3.9-3.8,6-5.3c2-1.6,4.2-2.9,6.4-4c2.2-1.1,4.6-1.9,7.1-2.5s5.2-0.8,8-0.8c3.3,0,6.5,0.4,9.5,1.3
			c3,0.9,5.9,2.1,8.6,3.7c2.6,1.5,5.1,3.4,7.3,5.6c2.2,2.2,4.1,4.6,5.6,7.3c1.6,2.6,2.8,5.5,3.7,8.6
			C187.5,82.2,187.9,85.4,187.9,88.7z"/>
	</g>
</g>
</svg>
